HIERARCHY
ROOT Hips
{
	OFFSET 0.00000 0.00000 0.00000
	CHANNELS 6 Xposition Yposition Zposition Zrotation Yrotation Xrotation 
	JOINT LHipJoint
	{
		OFFSET 0 0 0
		CHANNELS 3 Zrotation Yrotation Xrotation
		JOINT LeftUpLeg
		{
			OFFSET 1.53139 -1.83434 0.76626
			CHANNELS 3 Zrotation Yrotation Xrotation
			JOINT LeftLeg
			{
				OFFSET 2.56112 -7.03663 0.00000
				CHANNELS 3 Zrotation Yrotation Xrotation
				JOINT LeftFoot
				{
					OFFSET 2.59983 -7.14299 0.00000
					CHANNELS 3 Zrotation Yrotation Xrotation
					JOINT LeftToeBase
					{
						OFFSET 0.13742 -0.37757 2.00054
						CHANNELS 3 Zrotation Yrotation Xrotation
						End Site
						{
							OFFSET 0.00000 -0.00000 1.02897
						}
					}
				}
			}
		}
	}
	JOINT RHipJoint
	{
		OFFSET 0 0 0
		CHANNELS 3 Zrotation Yrotation Xrotation
		JOINT RightUpLeg
		{
			OFFSET -1.40122 -1.83435 0.76627
			CHANNELS 3 Zrotation Yrotation Xrotation
			JOINT RightLeg
			{
				OFFSET -2.54052 -6.98003 0.00000
				CHANNELS 3 Zrotation Yrotation Xrotation
				JOINT RightFoot
				{
					OFFSET -2.63179 -7.23079 0.00000
					CHANNELS 3 Zrotation Yrotation Xrotation
					JOINT RightToeBase
					{
						OFFSET -0.24131 -0.66299 2.03908
						CHANNELS 3 Zrotation Yrotation Xrotation
						End Site
						{
							OFFSET -0.00000 -0.00000 1.07391
						}
					}
				}
			}
		}
	}
	JOINT LowerBack
	{
		OFFSET 0 0 0
		CHANNELS 3 Zrotation Yrotation Xrotation
		JOINT Spine
		{
			OFFSET 0.01174 2.10302 -0.29778
			CHANNELS 3 Zrotation Yrotation Xrotation
			JOINT Spine1
			{
				OFFSET 0.00772 2.13227 -0.01247
				CHANNELS 3 Zrotation Yrotation Xrotation
				JOINT Neck
				{
					OFFSET 0 0 0
					CHANNELS 3 Zrotation Yrotation Xrotation
					JOINT Neck1
					{
						OFFSET -0.09219 1.60848 0.31481
						CHANNELS 3 Zrotation Yrotation Xrotation
						JOINT Head
						{
							OFFSET 0.13974 1.65456 -0.31134
							CHANNELS 3 Zrotation Yrotation Xrotation
							End Site
							{
								OFFSET 0.04742 1.69515 -0.14578
							}
						}
					}
				}
				JOINT LeftShoulder
				{
					OFFSET 0 0 0
					CHANNELS 3 Zrotation Yrotation Xrotation
					JOINT LeftArm
					{
						OFFSET 3.24909 1.02882 -0.23993
						CHANNELS 3 Zrotation Yrotation Xrotation
						JOINT LeftForeArm
						{
							OFFSET 5.32955 -0.00000 -0.00000
							CHANNELS 3 Zrotation Yrotation Xrotation
							JOINT LeftHand
							{
								OFFSET 3.69232 -0.00000 -0.00000
								CHANNELS 3 Zrotation Yrotation Xrotation
								JOINT LeftFingerBase
								{
									OFFSET 0 0 0
									CHANNELS 3 Zrotation Yrotation Xrotation
									JOINT LeftHandIndex1
									{
										OFFSET 0.53660 -0.00000 -0.00000
										CHANNELS 3 Zrotation Yrotation Xrotation
										End Site
										{
											OFFSET 0.43262 -0.00000 -0.00000
										}
									}
								}
								JOINT LThumb
								{
									OFFSET 0 0 0
									CHANNELS 3 Zrotation Yrotation Xrotation
									End Site
									{
										OFFSET 0.43922 -0.00000 0.43922
									}
								}
							}
						}
					}
				}
				JOINT RightShoulder
				{
					OFFSET 0 0 0
					CHANNELS 3 Zrotation Yrotation Xrotation
					JOINT RightArm
					{
						OFFSET -3.21387 0.93002 -0.34594
						CHANNELS 3 Zrotation Yrotation Xrotation
						JOINT RightForeArm
						{
							OFFSET -5.23431 -0.00000 0.00000
							CHANNELS 3 Zrotation Yrotation Xrotation
							JOINT RightHand
							{
								OFFSET -3.55301 -0.00000 -0.00000
								CHANNELS 3 Zrotation Yrotation Xrotation
								JOINT RightFingerBase
								{
									OFFSET 0 0 0
									CHANNELS 3 Zrotation Yrotation Xrotation
									JOINT RightHandIndex1
									{
										OFFSET -0.77252 -0.00000 -0.00000
										CHANNELS 3 Zrotation Yrotation Xrotation
										End Site
										{
											OFFSET -0.62283 -0.00000 -0.00000
										}
									}
								}
								JOINT RThumb
								{
									OFFSET 0 0 0
									CHANNELS 3 Zrotation Yrotation Xrotation
									End Site
									{
										OFFSET -0.63234 -0.00000 0.63234
									}
								}
							}
						}
					}
				}
			}
		}
	}
}
MOTION
Frames: 9
Frame Time: .0083333
-9.0299 17.8850 15.2379 -177.4630 20.5942 -178.6950 0.0000 0.0000 0.0000 -8.9789 -4.1031 -21.3976 9.3047 16.9999 57.1381 -0.3583 -11.2966 -0.1907 1.0892 -6.6327 -18.6317 0.0000 0.0000 0.0000 23.3662 2.8897 2.1858 -1.5568 -7.8744 22.3333 -0.2142 14.8371 -12.6727 -0.0205 -0.9241 2.5401 1.3881 1.8599 12.5050 0.2765 2.7660 0.3612 -0.9904 1.3456 -6.5845 -9.8890 -3.6671 -16.6256 4.9795 -0.5496 38.5602 4.2432 0.1322 16.9265 0.0000 -0.0000 0.0000 -86.0589 -0.1621 20.6412 17.7439 -27.8281 -4.4291 -0.0000 -0.0000 2.9611 23.3337 20.5549 8.6122 -7.1250 0.0000 -0.0000 -5.3354 52.1165 -0.9370 0.0000 -0.0000 0.0000 86.1684 -1.7179 13.8910 -18.1103 28.2982 -4.6014 0.0000 0.0000 6.9170 -20.1621 11.6614 -4.2445 7.1250 -0.0000 -0.0000 4.8928 -17.6075 3.1953
-9.0687 17.8882 15.2054 -177.3960 21.0742 -178.5770 0.0000 0.0000 0.0000 -8.6973 -4.9449 -21.2729 9.0244 16.8234 56.1746 -0.2634 -10.2280 -1.3291 0.7631 -5.5787 -15.5668 0.0000 0.0000 0.0000 23.1670 2.9900 2.2670 -1.5253 -7.7982 22.1028 -0.1540 15.1741 -12.2714 -0.0175 -0.8552 2.3506 1.5045 1.8493 12.4798 0.3005 2.7699 0.3726 -1.0299 1.3449 -6.5539 -9.9172 -3.6826 -16.7295 4.9419 -0.5835 38.5012 4.2186 0.0957 16.9248 0.0000 -0.0000 0.0000 -86.1706 -0.2559 20.7892 17.7721 -27.8644 -4.4422 -0.0000 -0.0000 3.4243 22.7336 20.2566 8.2542 -7.1250 0.0000 -0.0000 -5.8507 51.6955 -0.9675 0.0000 -0.0000 0.0000 86.0993 -1.7105 13.6319 -18.2781 28.5118 -4.6812 0.0000 0.0000 6.4904 -20.3170 11.8984 -4.3653 7.1250 -0.0000 -0.0000 4.7906 -17.3441 3.1558
-9.1096 17.8878 15.1705 -177.3890 21.6366 -178.5300 0.0000 0.0000 0.0000 -8.4643 -5.8076 -21.0226 8.6893 16.6036 55.0094 -0.1887 -9.2910 -2.1884 0.5053 -4.5568 -12.6486 0.0000 0.0000 0.0000 22.8902 3.3141 2.3842 -1.4948 -7.7233 21.8768 -0.0350 15.6185 -11.3398 -0.0780 -1.8019 4.9585 1.5756 1.8731 12.5070 0.2861 2.8119 0.3965 -1.0929 1.3637 -6.5386 -9.9430 -3.6868 -16.7788 5.0290 -0.6553 38.4232 4.2419 0.0637 16.9020 0.0000 -0.0000 0.0000 -86.2156 -0.3530 21.2740 17.8339 -27.9440 -4.4711 -0.0000 -0.0000 3.4558 22.8284 20.8393 8.5168 -7.1250 0.0000 -0.0000 -5.9306 52.3247 -1.0724 0.0000 -0.0000 0.0000 86.0598 -1.6892 13.4293 -18.4504 28.7300 -4.7638 0.0000 0.0000 5.9111 -20.2866 11.8155 -4.3284 7.1250 -0.0000 -0.0000 4.8097 -17.4342 3.1589
-9.1510 17.8978 15.1277 -177.3490 22.2347 -178.5110 0.0000 0.0000 0.0000 -8.1930 -6.7344 -20.6299 8.2991 16.3349 53.6331 -0.1421 -8.5327 -2.5603 0.2226 -3.0370 -8.3818 0.0000 0.0000 0.0000 22.6267 3.4864 2.5680 -1.4673 -7.6550 21.6709 0.0294 16.0962 -11.0015 -0.0965 -2.0038 5.5161 1.6768 1.8938 12.5256 0.3075 2.8567 0.4287 -1.1351 1.3841 -6.5099 -9.9905 -3.6753 -16.7565 5.0578 -0.6723 38.3365 4.2511 0.0452 16.8514 0.0000 -0.0000 0.0000 -86.3621 -0.3639 21.5683 17.9386 -28.0785 -4.5203 -0.0000 -0.0000 3.4648 23.2073 21.3055 8.8545 -7.1250 0.0000 -0.0000 -5.6909 52.8841 -1.1068 0.0000 -0.0000 0.0000 85.9927 -1.6199 13.0933 -18.5345 28.8361 -4.8042 0.0000 0.0000 5.4205 -20.1327 11.4221 -4.1523 7.1250 -0.0000 -0.0000 4.9078 -17.8625 3.1776
-9.1923 17.9172 15.0851 -177.2750 22.8313 -178.4670 0.0000 0.0000 0.0000 -7.8953 -7.6498 -20.1903 7.8727 16.0248 52.1030 -0.0916 -7.8365 -3.2350 0.1386 -2.3993 -6.6106 0.0000 0.0000 0.0000 22.4086 3.6158 2.7458 -1.4415 -7.5903 21.4765 0.0518 16.5248 -11.0833 -0.0493 -1.4332 3.9416 1.8160 1.9036 12.5440 0.3415 2.8946 0.4895 -1.1836 1.4015 -6.4496 -10.0272 -3.6567 -16.7609 4.9850 -0.6697 38.1432 4.2068 0.0160 16.7483 0.0000 0.0000 0.0000 -86.5516 -0.4741 21.6357 17.9841 -28.1368 -4.5417 -0.0000 -0.0000 3.5453 23.3156 21.2283 8.8698 -7.1250 0.0000 -0.0000 -5.5566 52.8230 -1.0722 0.0000 0.0000 0.0000 85.9578 -1.4304 12.6029 -18.5603 28.8687 -4.8167 0.0000 0.0000 5.2357 -19.8350 11.3218 -4.0506 7.1250 -0.0000 -0.0000 5.1146 -17.9925 3.2978
-9.2345 17.9302 15.0453 -177.2140 23.4129 -178.3310 0.0000 0.0000 0.0000 -7.6067 -8.5902 -19.8154 7.4285 15.6823 50.4768 -0.0320 -7.1930 -4.2556 0.2959 -3.4979 -9.6682 0.0000 0.0000 0.0000 22.1753 3.8335 2.8010 -1.4215 -7.5398 21.3246 0.0993 16.9454 -10.9094 -0.0247 -1.0148 2.7894 1.9108 1.9144 12.5103 0.3526 2.9230 0.5264 -1.2278 1.4146 -6.3866 -10.0670 -3.6629 -16.8364 4.9933 -0.7332 37.9678 4.1901 -0.0315 16.6801 0.0000 0.0000 0.0000 -86.6530 -0.6496 21.7424 18.0077 -28.1670 -4.5529 -0.0000 -0.0000 3.5237 23.2803 21.3153 8.8890 -7.1250 0.0000 -0.0000 -5.6195 52.9080 -1.0962 0.0000 0.0000 0.0000 85.9235 -1.3119 12.2601 -18.6485 28.9796 -4.8594 0.0000 0.0000 4.9648 -19.5898 11.3244 -3.9975 7.1250 -0.0000 -0.0000 5.2868 -18.0094 3.4078
-9.2768 17.9378 15.0014 -177.2460 24.0505 -178.2170 0.0000 0.0000 0.0000 -7.4253 -9.4756 -19.3554 6.9754 15.3111 48.7812 0.0135 -6.8597 -5.1283 0.4668 -4.3824 -12.1551 0.0000 0.0000 0.0000 21.8361 4.0914 2.8300 -1.4076 -7.5042 21.2181 0.1544 17.3801 -10.6812 -0.0105 -0.6619 1.8189 1.8921 1.9585 12.4828 0.3412 2.9756 0.4984 -1.2380 1.4393 -6.3997 -10.0691 -3.6625 -16.8657 5.0148 -0.7854 37.8642 4.1807 -0.0612 16.6369 -0.0000 0.0000 0.0000 -86.7486 -0.6575 21.8585 18.0297 -28.1951 -4.5632 -0.0000 -0.0000 3.4735 23.4626 20.9180 8.8088 -7.1250 0.0000 -0.0000 -5.3126 52.5231 -0.9859 -0.0000 0.0000 0.0000 85.8425 -1.3638 12.1896 -18.7736 29.1364 -4.9201 0.0000 0.0000 4.4287 -19.7683 10.7792 -3.8454 7.1250 -0.0000 -0.0000 5.1517 -18.5692 3.2561
-9.3202 17.9481 14.9554 -177.2940 24.7049 -178.1630 0.0000 0.0000 0.0000 -7.2632 -10.3579 -18.7572 6.5139 14.9085 47.0110 0.0356 -7.0941 -5.7686 0.5282 -4.6575 -12.9343 0.0000 0.0000 0.0000 21.4789 4.2799 2.8732 -1.4002 -7.4855 21.1619 0.2008 17.7958 -10.5416 -0.0019 -0.2783 0.7647 1.8881 2.0267 12.5589 0.3189 3.0633 0.4173 -1.2799 1.4777 -6.5246 -10.0269 -3.6482 -16.7327 5.0197 -0.8253 37.7518 4.1570 -0.0748 16.5467 -0.0000 0.0000 0.0000 -86.8527 -0.4961 22.0121 18.0942 -28.2776 -4.5938 -0.0000 -0.0000 3.3964 23.8842 20.1504 8.6731 -7.1250 0.0000 -0.0000 -4.6653 51.7872 -0.7811 -0.0000 0.0000 0.0000 85.7797 -1.4538 12.1476 -18.8407 29.2203 -4.9529 0.0000 0.0000 3.9239 -20.1423 10.0649 -3.6677 7.1250 -0.0000 -0.0000 4.8759 -19.2946 3.0017
-9.3679 17.9498 14.9064 -177.3000 25.2876 -178.0640 0.0000 0.0000 0.0000 -7.0426 -11.4369 -18.1344 6.0392 14.4662 45.1389 0.0396 -7.6945 -6.2114 0.5312 -4.6703 -12.9705 0.0000 0.0000 0.0000 21.1446 4.4075 2.8572 -1.3902 -7.4598 21.0849 0.2583 18.2368 -10.3228 -0.0005 -0.1404 0.3858 1.9917 2.0529 12.5360 0.3054 3.1101 0.3877 -1.3600 1.4960 -6.5355 -10.0330 -3.6544 -16.6948 5.0242 -0.8805 37.6353 4.1391 -0.1064 16.4813 0.0000 -0.0000 0.0000 -86.9783 -0.4131 22.1021 18.2131 -28.4291 -4.6502 -0.0000 -0.0000 3.3461 23.8969 20.7414 8.9179 -7.1250 0.0000 -0.0000 -4.8197 52.4161 -0.8814 0.0000 -0.0000 0.0000 85.6643 -1.4907 12.1655 -18.9120 29.3091 -4.9877 0.0000 0.0000 3.5802 -20.4593 9.7171 -3.6031 7.1250 -0.0000 -0.0000 4.6450 -19.6398 2.8228
